<?xml version="1.0" encoding="UTF-8" standalone="no" ?>
<!DOCTYPE svg PUBLIC "-//W3C//DTD SVG 1.1//EN" "http://www.w3.org/Graphics/SVG/1.1/DTD/svg11.dtd">
<svg xmlns="http://www.w3.org/2000/svg" xmlns:xlink="http://www.w3.org/1999/xlink" version="1.1" width="600" height="600" viewBox="0 0 350 350" xml:space="preserve">
<desc>Created with Fabric.js 3.6.2</desc>
<defs>
</defs>
<g transform="matrix(8.33 0 0 8.33 200 200)"  >
<path style="stroke: none; stroke-width: 1; stroke-dasharray: none; stroke-linecap: butt; stroke-dashoffset: 0; stroke-linejoin: miter; stroke-miterlimit: 4; fill: rgb(68,76,96); fill-rule: evenodd; opacity: 1;"  transform=" translate(-12, -12)" d="M 2 12 C 2 6.47715 6.47715 2 12 2 C 17.5228 2 22 6.47715 22 12 C 22 17.5228 17.5228 22 12 22 C 6.47715 22 2 17.5228 2 12 Z M 12 4 C 7.58172 4 4 7.58172 4 12 C 4 16.4183 7.58172 20 12 20 C 16.4183 20 20 16.4183 20 12 C 20 7.58172 16.4183 4 12 4 Z" stroke-linecap="round" />
</g>
<g transform="matrix(8.33 0 0 8.33 200 200)"  >
<path style="stroke: none; stroke-width: 1; stroke-dasharray: none; stroke-linecap: butt; stroke-dashoffset: 0; stroke-linejoin: miter; stroke-miterlimit: 4; fill: rgb(68,76,96); fill-rule: evenodd; opacity: 1;"  transform=" translate(-12, -12)" d="M 13 7 C 13 6.44772 12.5523 6 12 6 C 11.4477 6 11 6.44772 11 7 V 11 H 7 C 6.44772 11 6 11.4477 6 12 C 6 12.5523 6.44772 13 7 13 H 11 V 17 C 11 17.5523 11.4477 18 12 18 C 12.5523 18 13 17.5523 13 17 V 13 H 17 C 17.5523 13 18 12.5523 18 12 C 18 11.4477 17.5523 11 17 11 H 13 V 7 Z" stroke-linecap="round" />
</g>
</svg>